<svg xmlns="http://www.w3.org/2000/svg" width="1440" height="778" style="cursor: move;"><g transform="translate(123.15464048524899,80.38936684426119) scale(0.7663099801038918)"><path class="link" marker-end="url(#arrow)" d="M560,359, 740,246" style="stroke-width: 0.5; stroke-opacity: 1; stroke: rgb(80, 80, 80); fill: none;"></path><path class="link" marker-end="url(#arrow)" d="M560,359, 740,284" style="stroke-width: 0.5; stroke-opacity: 1; stroke: rgb(80, 80, 80); fill: none;"></path><path class="link" marker-end="url(#arrow)" d="M560,359, 740,322" style="stroke-width: 0.5; stroke-opacity: 1; stroke: rgb(80, 80, 80); fill: none;"></path><path class="link" marker-end="url(#arrow)" d="M560,359, 740,360" style="stroke-width: 0.5; stroke-opacity: 1; stroke: rgb(80, 80, 80); fill: none;"></path><path class="link" marker-end="url(#arrow)" d="M560,359, 740,398" style="stroke-width: 0.5; stroke-opacity: 1; stroke: rgb(80, 80, 80); fill: none;"></path><path class="link" marker-end="url(#arrow)" d="M560,359, 740,436" style="stroke-width: 0.5; stroke-opacity: 1; stroke: rgb(80, 80, 80); fill: none;"></path><path class="link" marker-end="url(#arrow)" d="M560,359, 740,474" style="stroke-width: 0.5; stroke-opacity: 1; stroke: rgb(80, 80, 80); fill: none;"></path><path class="link" marker-end="url(#arrow)" d="M560,359, 740,512" style="stroke-width: 0.5; stroke-opacity: 1; stroke: rgb(80, 80, 80); fill: none;"></path><path class="link" marker-end="url(#arrow)" d="M560,399, 740,246" style="stroke-width: 0.5; stroke-opacity: 1; stroke: rgb(80, 80, 80); fill: none;"></path><path class="link" marker-end="url(#arrow)" d="M560,399, 740,284" style="stroke-width: 0.5; stroke-opacity: 1; stroke: rgb(80, 80, 80); fill: none;"></path><path class="link" marker-end="url(#arrow)" d="M560,399, 740,322" style="stroke-width: 0.5; stroke-opacity: 1; stroke: rgb(80, 80, 80); fill: none;"></path><path class="link" marker-end="url(#arrow)" d="M560,399, 740,360" style="stroke-width: 0.5; stroke-opacity: 1; stroke: rgb(80, 80, 80); fill: none;"></path><path class="link" marker-end="url(#arrow)" d="M560,399, 740,398" style="stroke-width: 0.5; stroke-opacity: 1; stroke: rgb(80, 80, 80); fill: none;"></path><path class="link" marker-end="url(#arrow)" d="M560,399, 740,436" style="stroke-width: 0.5; stroke-opacity: 1; stroke: rgb(80, 80, 80); fill: none;"></path><path class="link" marker-end="url(#arrow)" d="M560,399, 740,474" style="stroke-width: 0.5; stroke-opacity: 1; stroke: rgb(80, 80, 80); fill: none;"></path><path class="link" marker-end="url(#arrow)" d="M560,399, 740,512" style="stroke-width: 0.5; stroke-opacity: 1; stroke: rgb(80, 80, 80); fill: none;"></path><path class="link" marker-end="url(#arrow)" d="M740,246, 920,335.5" style="stroke-width: 0.5; stroke-opacity: 1; stroke: rgb(80, 80, 80); fill: none;"></path><path class="link" marker-end="url(#arrow)" d="M740,246, 920,422.5" style="stroke-width: 0.5; stroke-opacity: 1; stroke: rgb(80, 80, 80); fill: none;"></path><path class="link" marker-end="url(#arrow)" d="M740,284, 920,335.5" style="stroke-width: 0.5; stroke-opacity: 1; stroke: rgb(80, 80, 80); fill: none;"></path><path class="link" marker-end="url(#arrow)" d="M740,284, 920,422.5" style="stroke-width: 0.5; stroke-opacity: 1; stroke: rgb(80, 80, 80); fill: none;"></path><path class="link" marker-end="url(#arrow)" d="M740,322, 920,335.5" style="stroke-width: 0.5; stroke-opacity: 1; stroke: rgb(80, 80, 80); fill: none;"></path><path class="link" marker-end="url(#arrow)" d="M740,322, 920,422.5" style="stroke-width: 0.5; stroke-opacity: 1; stroke: rgb(80, 80, 80); fill: none;"></path><path class="link" marker-end="url(#arrow)" d="M740,360, 920,335.5" style="stroke-width: 0.5; stroke-opacity: 1; stroke: rgb(80, 80, 80); fill: none;"></path><path class="link" marker-end="url(#arrow)" d="M740,360, 920,422.5" style="stroke-width: 0.5; stroke-opacity: 1; stroke: rgb(80, 80, 80); fill: none;"></path><path class="link" marker-end="url(#arrow)" d="M740,398, 920,335.5" style="stroke-width: 0.5; stroke-opacity: 1; stroke: rgb(80, 80, 80); fill: none;"></path><path class="link" marker-end="url(#arrow)" d="M740,398, 920,422.5" style="stroke-width: 0.5; stroke-opacity: 1; stroke: rgb(80, 80, 80); fill: none;"></path><path class="link" marker-end="url(#arrow)" d="M740,436, 920,335.5" style="stroke-width: 0.5; stroke-opacity: 1; stroke: rgb(80, 80, 80); fill: none;"></path><path class="link" marker-end="url(#arrow)" d="M740,436, 920,422.5" style="stroke-width: 0.5; stroke-opacity: 1; stroke: rgb(80, 80, 80); fill: none;"></path><path class="link" marker-end="url(#arrow)" d="M740,474, 920,335.5" style="stroke-width: 0.5; stroke-opacity: 1; stroke: rgb(80, 80, 80); fill: none;"></path><path class="link" marker-end="url(#arrow)" d="M740,474, 920,422.5" style="stroke-width: 0.5; stroke-opacity: 1; stroke: rgb(80, 80, 80); fill: none;"></path><path class="link" marker-end="url(#arrow)" d="M740,512, 920,335.5" style="stroke-width: 0.5; stroke-opacity: 1; stroke: rgb(80, 80, 80); fill: none;"></path><path class="link" marker-end="url(#arrow)" d="M740,512, 920,422.5" style="stroke-width: 0.5; stroke-opacity: 1; stroke: rgb(80, 80, 80); fill: none;"></path><circle r="10" class="node" id="0_0" cx="560" cy="359" style="fill: rgb(255, 255, 255); stroke: rgb(51, 51, 51);"></circle><circle r="10" class="node" id="0_1" cx="560" cy="399" style="fill: rgb(255, 255, 255); stroke: rgb(51, 51, 51);"></circle><circle r="10" class="node" id="1_0" cx="740" cy="246" style="fill: rgb(255, 255, 255); stroke: rgb(51, 51, 51);"></circle><circle r="10" class="node" id="1_1" cx="740" cy="284" style="fill: rgb(255, 255, 255); stroke: rgb(51, 51, 51);"></circle><circle r="10" class="node" id="1_2" cx="740" cy="322" style="fill: rgb(255, 255, 255); stroke: rgb(51, 51, 51);"></circle><circle r="10" class="node" id="1_3" cx="740" cy="360" style="fill: rgb(255, 255, 255); stroke: rgb(51, 51, 51);"></circle><circle r="10" class="node" id="1_4" cx="740" cy="398" style="fill: rgb(255, 255, 255); stroke: rgb(51, 51, 51);"></circle><circle r="10" class="node" id="1_5" cx="740" cy="436" style="fill: rgb(255, 255, 255); stroke: rgb(51, 51, 51);"></circle><circle r="10" class="node" id="1_6" cx="740" cy="474" style="fill: rgb(255, 255, 255); stroke: rgb(51, 51, 51);"></circle><circle r="10" class="node" id="1_7" cx="740" cy="512" style="fill: rgb(255, 255, 255); stroke: rgb(51, 51, 51);"></circle><circle r="10" class="node" id="2_0" cx="920" cy="335.5" style="fill: rgb(255, 255, 255); stroke: rgb(51, 51, 51);"></circle><circle r="10" class="node" id="2_1" cx="920" cy="422.5" style="fill: rgb(255, 255, 255); stroke: rgb(51, 51, 51);"></circle><text class="text" dy=".35em" x="525" y="552" style="font-size: 12px;">Input Layer ∈ ℝ²</text><text class="text" dy=".35em" x="705" y="552" style="font-size: 12px;">Hidden Layer ∈ ℝ⁸</text><text class="text" dy=".35em" x="885" y="552" style="font-size: 12px;">Output Layer ∈ ℝ²</text></g><defs><marker id="arrow" viewBox="0 -5 10 10" markerWidth="7" markerHeight="7" orient="auto" refX="40"><path d="M0,-5L10,0L0,5" style="stroke: rgb(80, 80, 80); fill: none;"></path></marker></defs></svg>